<mxfile host="65bd71144e">
    <diagram id="YyBQGo_76RrAJoqQ6X7Z" name="Page-1">
        <mxGraphModel dx="908" dy="685" grid="1" gridSize="10" guides="1" tooltips="1" connect="1" arrows="1" fold="1" page="1" pageScale="1" pageWidth="1100" pageHeight="850" math="0" shadow="0">
            <root>
                <mxCell id="0"/>
                <mxCell id="1" parent="0"/>
                <mxCell id="V2n5tiTMLpJygb_ml1YA-19" value="Employee" style="swimlane;fontStyle=1;childLayout=stackLayout;horizontal=1;startSize=26;fillColor=#fff2cc;horizontalStack=0;resizeParent=1;resizeParentMax=0;resizeLast=0;collapsible=1;marginBottom=0;fontSize=14;strokeColor=#d6b656;" parent="1" vertex="1">
                    <mxGeometry x="230" y="40" width="140" height="78" as="geometry"/>
                </mxCell>
                <mxCell id="V2n5tiTMLpJygb_ml1YA-20" value="+ id: int" style="text;strokeColor=#d6b656;fillColor=#fff2cc;align=left;verticalAlign=top;spacingLeft=4;spacingRight=4;overflow=hidden;rotatable=0;points=[[0,0.5],[1,0.5]];portConstraint=eastwest;fontSize=14;" parent="V2n5tiTMLpJygb_ml1YA-19" vertex="1">
                    <mxGeometry y="26" width="140" height="26" as="geometry"/>
                </mxCell>
                <mxCell id="V2n5tiTMLpJygb_ml1YA-21" value="+ name: str" style="text;strokeColor=#d6b656;fillColor=#fff2cc;align=left;verticalAlign=top;spacingLeft=4;spacingRight=4;overflow=hidden;rotatable=0;points=[[0,0.5],[1,0.5]];portConstraint=eastwest;fontSize=14;" parent="V2n5tiTMLpJygb_ml1YA-19" vertex="1">
                    <mxGeometry y="52" width="140" height="26" as="geometry"/>
                </mxCell>
                <mxCell id="V2n5tiTMLpJygb_ml1YA-42" value="Extends" style="endArrow=block;endSize=16;endFill=0;html=1;rounded=0;fontSize=14;fontColor=#000000;exitX=0.75;exitY=0;exitDx=0;exitDy=0;entryX=0.25;entryY=1;entryDx=0;entryDy=0;" parent="1" source="V2n5tiTMLpJygb_ml1YA-64" target="V2n5tiTMLpJygb_ml1YA-19" edge="1">
                    <mxGeometry width="160" relative="1" as="geometry">
                        <mxPoint x="170" y="160" as="sourcePoint"/>
                        <mxPoint x="270" y="130" as="targetPoint"/>
                    </mxGeometry>
                </mxCell>
                <mxCell id="V2n5tiTMLpJygb_ml1YA-43" value="Extends" style="endArrow=block;endSize=16;endFill=0;html=1;rounded=0;fontSize=14;fontColor=#000000;entryX=0.75;entryY=1;entryDx=0;entryDy=0;exitX=0.25;exitY=0;exitDx=0;exitDy=0;" parent="1" source="V2n5tiTMLpJygb_ml1YA-68" target="V2n5tiTMLpJygb_ml1YA-19" edge="1">
                    <mxGeometry width="160" relative="1" as="geometry">
                        <mxPoint x="430" y="170" as="sourcePoint"/>
                        <mxPoint x="340" y="160" as="targetPoint"/>
                    </mxGeometry>
                </mxCell>
                <mxCell id="V2n5tiTMLpJygb_ml1YA-44" value="Extends" style="endArrow=block;endSize=16;endFill=0;html=1;rounded=0;fontSize=14;fontColor=#000000;exitX=0.5;exitY=0;exitDx=0;exitDy=0;entryX=0.493;entryY=1.115;entryDx=0;entryDy=0;entryPerimeter=0;" parent="1" source="V2n5tiTMLpJygb_ml1YA-59" target="V2n5tiTMLpJygb_ml1YA-67" edge="1">
                    <mxGeometry width="160" relative="1" as="geometry">
                        <mxPoint x="150" y="380" as="sourcePoint"/>
                        <mxPoint x="150" y="290" as="targetPoint"/>
                    </mxGeometry>
                </mxCell>
                <mxCell id="V2n5tiTMLpJygb_ml1YA-45" value="Implements" style="endArrow=block;dashed=1;endFill=0;endSize=12;html=1;rounded=0;fontSize=14;fontColor=#000000;exitX=0.864;exitY=1.154;exitDx=0;exitDy=0;exitPerimeter=0;entryX=0;entryY=0.25;entryDx=0;entryDy=0;" parent="1" source="V2n5tiTMLpJygb_ml1YA-67" target="2" edge="1">
                    <mxGeometry width="160" relative="1" as="geometry">
                        <mxPoint x="210.7729999999999" y="285.6679999999999" as="sourcePoint"/>
                        <mxPoint x="370" y="400" as="targetPoint"/>
                    </mxGeometry>
                </mxCell>
                <mxCell id="V2n5tiTMLpJygb_ml1YA-46" value="Implements" style="endArrow=block;dashed=1;endFill=0;endSize=12;html=1;rounded=0;fontSize=14;fontColor=#000000;exitX=1.009;exitY=1.267;exitDx=0;exitDy=0;exitPerimeter=0;entryX=0;entryY=0.5;entryDx=0;entryDy=0;" parent="1" source="V2n5tiTMLpJygb_ml1YA-60" target="2" edge="1">
                    <mxGeometry width="160" relative="1" as="geometry">
                        <mxPoint x="220" y="460" as="sourcePoint"/>
                        <mxPoint x="370" y="430" as="targetPoint"/>
                    </mxGeometry>
                </mxCell>
                <mxCell id="V2n5tiTMLpJygb_ml1YA-47" value="Implements" style="endArrow=block;dashed=1;endFill=0;endSize=12;html=1;rounded=0;fontSize=14;fontColor=#000000;exitX=0.504;exitY=0.998;exitDx=0;exitDy=0;exitPerimeter=0;" parent="1" source="V2n5tiTMLpJygb_ml1YA-71" edge="1">
                    <mxGeometry width="160" relative="1" as="geometry">
                        <mxPoint x="439" y="282" as="sourcePoint"/>
                        <mxPoint x="461" y="370" as="targetPoint"/>
                    </mxGeometry>
                </mxCell>
                <mxCell id="V2n5tiTMLpJygb_ml1YA-59" value="CommissionEmployee" style="swimlane;fontStyle=1;align=center;verticalAlign=top;childLayout=stackLayout;horizontal=1;startSize=26;horizontalStack=0;resizeParent=1;resizeParentMax=0;resizeLast=0;collapsible=1;marginBottom=0;fontSize=14;fillColor=#fff2cc;strokeColor=#d6b656;" parent="1" vertex="1">
                    <mxGeometry x="40" y="360" width="180" height="62" as="geometry"/>
                </mxCell>
                <mxCell id="V2n5tiTMLpJygb_ml1YA-60" value="  " style="text;strokeColor=#d6b656;fillColor=#fff2cc;align=left;verticalAlign=top;spacingLeft=4;spacingRight=4;overflow=hidden;rotatable=0;points=[[0,0.5],[1,0.5]];portConstraint=eastwest;fontSize=14;" parent="V2n5tiTMLpJygb_ml1YA-59" vertex="1">
                    <mxGeometry y="26" width="180" height="10" as="geometry"/>
                </mxCell>
                <mxCell id="V2n5tiTMLpJygb_ml1YA-62" value="+ calculate_payroll(): float" style="text;strokeColor=#d6b656;fillColor=#fff2cc;align=left;verticalAlign=top;spacingLeft=4;spacingRight=4;overflow=hidden;rotatable=0;points=[[0,0.5],[1,0.5]];portConstraint=eastwest;fontSize=14;" parent="V2n5tiTMLpJygb_ml1YA-59" vertex="1">
                    <mxGeometry y="36" width="180" height="26" as="geometry"/>
                </mxCell>
                <mxCell id="V2n5tiTMLpJygb_ml1YA-64" value="SalaryEmployee" style="swimlane;fontStyle=1;align=center;verticalAlign=top;childLayout=stackLayout;horizontal=1;startSize=26;horizontalStack=0;resizeParent=1;resizeParentMax=0;resizeLast=0;collapsible=1;marginBottom=0;fontSize=14;fillColor=#fff2cc;strokeColor=#d6b656;" parent="1" vertex="1">
                    <mxGeometry x="40" y="200" width="180" height="62" as="geometry"/>
                </mxCell>
                <mxCell id="V2n5tiTMLpJygb_ml1YA-65" value="  " style="text;strokeColor=#d6b656;fillColor=#fff2cc;align=left;verticalAlign=top;spacingLeft=4;spacingRight=4;overflow=hidden;rotatable=0;points=[[0,0.5],[1,0.5]];portConstraint=eastwest;fontSize=14;" parent="V2n5tiTMLpJygb_ml1YA-64" vertex="1">
                    <mxGeometry y="26" width="180" height="10" as="geometry"/>
                </mxCell>
                <mxCell id="V2n5tiTMLpJygb_ml1YA-67" value="+ calculate_payroll(): float" style="text;strokeColor=#d6b656;fillColor=#fff2cc;align=left;verticalAlign=top;spacingLeft=4;spacingRight=4;overflow=hidden;rotatable=0;points=[[0,0.5],[1,0.5]];portConstraint=eastwest;fontSize=14;" parent="V2n5tiTMLpJygb_ml1YA-64" vertex="1">
                    <mxGeometry y="36" width="180" height="26" as="geometry"/>
                </mxCell>
                <mxCell id="V2n5tiTMLpJygb_ml1YA-68" value="HourlyEmployee" style="swimlane;fontStyle=1;align=center;verticalAlign=top;childLayout=stackLayout;horizontal=1;startSize=26;horizontalStack=0;resizeParent=1;resizeParentMax=0;resizeLast=0;collapsible=1;marginBottom=0;fontSize=14;fillColor=#fff2cc;strokeColor=#d6b656;" parent="1" vertex="1">
                    <mxGeometry x="370" y="200" width="180" height="62" as="geometry"/>
                </mxCell>
                <mxCell id="V2n5tiTMLpJygb_ml1YA-69" value="  " style="text;strokeColor=#d6b656;fillColor=#fff2cc;align=left;verticalAlign=top;spacingLeft=4;spacingRight=4;overflow=hidden;rotatable=0;points=[[0,0.5],[1,0.5]];portConstraint=eastwest;fontSize=14;" parent="V2n5tiTMLpJygb_ml1YA-68" vertex="1">
                    <mxGeometry y="26" width="180" height="10" as="geometry"/>
                </mxCell>
                <mxCell id="V2n5tiTMLpJygb_ml1YA-71" value="+ calculate_payroll(): float" style="text;strokeColor=#d6b656;fillColor=#fff2cc;align=left;verticalAlign=top;spacingLeft=4;spacingRight=4;overflow=hidden;rotatable=0;points=[[0,0.5],[1,0.5]];portConstraint=eastwest;fontSize=14;" parent="V2n5tiTMLpJygb_ml1YA-68" vertex="1">
                    <mxGeometry y="36" width="180" height="26" as="geometry"/>
                </mxCell>
                <mxCell id="2" value="&lt;i style=&quot;font-size: 14px;&quot;&gt;&amp;lt;&amp;lt;interface&amp;gt;&amp;gt;&lt;/i&gt;&lt;br style=&quot;font-size: 14px;&quot;&gt;&lt;b style=&quot;font-size: 14px;&quot;&gt;IPayrollCalculator&lt;/b&gt;" style="swimlane;fontStyle=0;align=center;verticalAlign=top;childLayout=stackLayout;horizontal=1;startSize=40;horizontalStack=0;resizeParent=1;resizeParentMax=0;resizeLast=0;collapsible=0;marginBottom=0;html=1;fillColor=#d5e8d4;strokeColor=#82b366;fontSize=14;spacingBottom=2;" parent="1" vertex="1">
                    <mxGeometry x="360" y="370" width="200" height="110" as="geometry"/>
                </mxCell>
                <mxCell id="11" value="+ id: int&lt;br style=&quot;font-size: 14px;&quot;&gt;+ name: string" style="text;html=1;strokeColor=#82b366;fillColor=#d5e8d4;align=left;verticalAlign=middle;spacingLeft=4;spacingRight=4;overflow=hidden;rotatable=0;points=[[0,0.5],[1,0.5]];portConstraint=eastwest;fontSize=14;spacingBottom=2;spacingTop=2;" parent="2" vertex="1">
                    <mxGeometry y="40" width="200" height="40" as="geometry"/>
                </mxCell>
                <mxCell id="9" value="+ calculate_payroll(): float" style="text;html=1;strokeColor=#82b366;fillColor=#d5e8d4;align=left;verticalAlign=middle;spacingLeft=4;spacingRight=4;overflow=hidden;rotatable=0;points=[[0,0.5],[1,0.5]];portConstraint=eastwest;fontSize=14;spacingTop=2;spacingBottom=2;" parent="2" vertex="1">
                    <mxGeometry y="80" width="200" height="30" as="geometry"/>
                </mxCell>
            </root>
        </mxGraphModel>
    </diagram>
</mxfile>
